<svg width="20" height="20" viewBox="0 0 20 20" fill="none" xmlns="http://www.w3.org/2000/svg">
<circle cx="10" cy="10" r="10" fill="#1C1C1C"/>
<circle cx="10" cy="10" r="10" fill="url(#paint0_linear_470_146)"/>
<path d="M7.78296 13.0459H9.39624V14.6602H4.45288V13.0459H6.04468L6.05444 6.98145C5.74649 7.21664 5.42818 7.40283 5.09937 7.54004C4.72946 7.69824 4.34564 7.7686 3.948 7.75V6.28418C4.16068 6.29347 4.40152 6.23281 4.66968 6.10254C4.94698 5.96298 5.21997 5.78183 5.48804 5.55859C5.73946 5.34921 5.96604 5.13457 6.1687 4.91699V4.87402H7.78296V13.0459Z" fill="white"/>
<path d="M15.6501 14.6421H14.0242V10.2593L14.0574 8.02881H14.0037L11.1824 12.6899H10.7576L8.58862 9.10693V6.51611L10.9431 10.3062H10.9958L14.3826 4.85498H15.6501V14.6421Z" fill="white"/>
<g opacity="0.3">
<path d="M8.28735 13.5503H9.90063V15.1646H4.95728V13.5503H6.54907L6.55884 7.48584C6.25089 7.72103 5.93258 7.90722 5.60376 8.04443C5.23386 8.20263 4.85004 8.273 4.45239 8.25439V6.78857C4.66508 6.79787 4.90591 6.7372 5.17407 6.60693C5.45138 6.46737 5.72437 6.28622 5.99243 6.06299C6.24386 5.8536 6.47043 5.63896 6.6731 5.42139V5.37842H8.28735V13.5503Z" fill="white"/>
<path d="M16.1545 15.1465H14.5286V10.7646L14.5618 8.5332H14.5081L11.6868 13.1943H11.262L9.09302 9.61133V7.02051L11.4475 10.8105H11.5002L14.887 5.35938H16.1545V15.1465Z" fill="white"/>
</g>
<defs>
<linearGradient id="paint0_linear_470_146" x1="0" y1="10" x2="18.5" y2="10" gradientUnits="userSpaceOnUse">
<stop stop-color="#AD3B6C"/>
<stop offset="1" stop-color="#E6543B"/>
</linearGradient>
</defs>
</svg>
